<svg xmlns="http://www.w3.org/2000/svg" viewBox="0 0 128 128" width="128" height="128" role="img" aria-label="kedi"><rect width="128" height="128" rx="28" fill="#F2B23C"/><circle cx="64" cy="118" r="46" fill="#0B1220" opacity="0.12"/><path d="M28 44 34 14l22 16z" fill="#3B4A6B"/><path d="M100 44 94 14 72 30z" fill="#3B4A6B"/><path d="M34 40l3-16 12 9z" fill="#E0729A"/><path d="M94 40l-3-16-12 9z" fill="#E0729A"/><ellipse cx="64" cy="70" rx="40" ry="38" fill="#3B4A6B"/><circle cx="48" cy="66" r="12" fill="#FFF8EC"/><circle cx="80" cy="66" r="12" fill="#FFF8EC"/><circle cx="48" cy="68" r="6" fill="#2FBF71"/><circle cx="80" cy="68" r="6" fill="#2FBF71"/><circle cx="45" cy="64" r="2.2" fill="#FFF8EC"/><circle cx="77" cy="64" r="2.2" fill="#FFF8EC"/><path d="M46 84q18-8 36 0-18 6-36 0z" fill="#0B1220"/><path d="M50 88q14 13 28 0" stroke="#0B1220" stroke-width="5" fill="none" stroke-linecap="round"/></svg>