<svg xmlns="http://www.w3.org/2000/svg" viewBox="0 0 128 128" width="128" height="128" role="img" aria-label="tilki"><rect width="128" height="128" rx="28" fill="#4A9DD9"/><circle cx="64" cy="118" r="46" fill="#0B1220" opacity="0.12"/><path d="M28 44 34 14l22 16z" fill="#EE8B3C"/><path d="M100 44 94 14 72 30z" fill="#EE8B3C"/><path d="M34 40l3-16 12 9z" fill="#0B1220"/><path d="M94 40l-3-16-12 9z" fill="#0B1220"/><path d="M64 30c24 0 38 18 38 38s-14 40-38 40-38-18-38-40 14-38 38-38z" fill="#EE8B3C"/><path d="M64 76c14 0 22 8 22 16s-10 14-22 14-22-6-22-14 8-16 22-16z" fill="#FFF8EC"/><path d="M38 68q10-11 20 0" stroke="#0B1220" stroke-width="5" fill="none" stroke-linecap="round"/><path d="M70 68q10-11 20 0" stroke="#0B1220" stroke-width="5" fill="none" stroke-linecap="round"/><ellipse cx="64" cy="86" rx="7" ry="5" fill="#0B1220"/><path d="M50 88q14 13 28 0" stroke="#0B1220" stroke-width="5" fill="none" stroke-linecap="round"/></svg>