<svg xmlns="http://www.w3.org/2000/svg" viewBox="0 0 128 128" width="128" height="128" role="img" aria-label="ahtapot"><rect width="128" height="128" rx="28" fill="#F2B23C"/><circle cx="64" cy="118" r="46" fill="#0B1220" opacity="0.12"/><path d="M64 26c22 0 36 16 36 36v20H28V62c0-20 14-36 36-36z" fill="#D9536A"/><path d="M28 82q8 18 0 26M46 82q6 20-2 26M64 82q4 22 0 26M82 82q-6 20 2 26M100 82q-8 18 0 26" stroke="#D9536A" stroke-width="11" fill="none" stroke-linecap="round"/><circle cx="48" cy="66" r="12" fill="#FFF8EC"/><circle cx="80" cy="66" r="12" fill="#FFF8EC"/><circle cx="48" cy="68" r="6" fill="#0B1220"/><circle cx="80" cy="68" r="6" fill="#0B1220"/><circle cx="45" cy="64" r="2.2" fill="#FFF8EC"/><circle cx="77" cy="64" r="2.2" fill="#FFF8EC"/><ellipse cx="64" cy="90" rx="9" ry="10" fill="#0B1220"/></svg>